<svg width="254" height="254" viewBox="0 0 254 254" fill="none" xmlns="http://www.w3.org/2000/svg">
<path d="M201.083 31.75H52.9167C41.2266 31.75 31.75 41.2266 31.75 52.9167V201.083C31.75 212.773 41.2266 222.25 52.9167 222.25H201.083C212.773 222.25 222.25 212.773 222.25 201.083V52.9167C222.25 41.2266 212.773 31.75 201.083 31.75Z" stroke="white" stroke-width="2" stroke-linecap="round" stroke-linejoin="round"/>
<path d="M222.25 158.75L169.333 105.833L52.9167 222.25" stroke="white" stroke-width="2" stroke-linecap="round" stroke-linejoin="round"/>
<path d="M89.9583 105.833C98.7258 105.833 105.833 98.7258 105.833 89.9583C105.833 81.1908 98.7258 74.0833 89.9583 74.0833C81.1908 74.0833 74.0833 81.1908 74.0833 89.9583C74.0833 98.7258 81.1908 105.833 89.9583 105.833Z" stroke="white" stroke-width="2" stroke-linecap="round" stroke-linejoin="round"/>
</svg>
