<?xml version="1.0" standalone="no"?>
<!DOCTYPE svg PUBLIC "-//W3C//DTD SVG 1.1//EN" "http://www.w3.org/Graphics/SVG/1.1/DTD/svg11.dtd" >
<svg xmlns="http://www.w3.org/2000/svg">
<metadata>Generated by IcoMoon</metadata>
<defs>
<font id="iconfont" horiz-adv-x="1024">
<font-face units-per-em="1024" ascent="960" descent="-64" />
<missing-glyph horiz-adv-x="1024" />
<glyph unicode="&#x20;" horiz-adv-x="512" d="" />
<glyph unicode="&#xe901;" glyph-name="bell" d="M639.991 128c0.009-21.53-8.124-42.266-22.758-58.048-14.639-15.787-34.705-25.459-56.175-27.072l-6.4-0.213h-85.333c-21.525-0.009-42.261 8.124-58.048 22.763s-25.455 34.701-27.070 56.171l-0.213 6.4h255.998zM511.991 853.334c77.44 0.001 151.855-30.075 207.543-83.886s88.299-127.148 90.953-204.541l0.171-10.24v-160.597l77.739-155.477c3.396-6.784 5.094-14.289 4.949-21.871-0.141-7.586-2.121-15.023-5.764-21.675s-8.849-12.322-15.164-16.521c-6.315-4.203-13.551-6.81-21.099-7.603l-4.907-0.256h-668.841c-7.588-0.004-15.063 1.835-21.785 5.355s-12.49 8.619-16.811 14.852c-4.321 6.238-7.064 13.431-7.997 20.962s-0.024 15.172 2.645 22.276l1.963 4.48 77.739 155.477v160.597c0 79.212 31.467 155.178 87.477 211.189s131.977 87.477 211.187 87.477z" />
<glyph unicode="&#xe902;" glyph-name="calendar" d="M362.667 896c-23.564 0-42.667-19.103-42.667-42.667v-42.667h-106.667c-94.257 0-170.667-76.41-170.667-170.667v-512c0-94.255 76.41-170.667 170.667-170.667h597.333c94.255 0 170.667 76.412 170.667 170.667v512c0 94.257-76.412 170.667-170.667 170.667h-106.667v42.667c0 23.564-19.102 42.667-42.667 42.667s-42.667-19.103-42.667-42.667v-42.667h-213.333v42.667c0 23.564-19.102 42.667-42.667 42.667zM618.667 725.334v-42.667c0-23.564 19.102-42.667 42.667-42.667s42.667 19.103 42.667 42.667v42.667h106.667c47.13 0 85.333-38.205 85.333-85.333v-512c0-47.13-38.204-85.333-85.333-85.333h-597.333c-47.128 0-85.333 38.204-85.333 85.333v512c0 47.128 38.205 85.333 85.333 85.333h106.667v-42.667c0-23.564 19.103-42.667 42.667-42.667s42.667 19.103 42.667 42.667v42.667h213.333z" />
<glyph unicode="&#xe903;" glyph-name="cart-bold" d="M370.924 42.667c35.051 0 63.466 28.655 63.466 64s-28.415 64-63.466 64c-35.051 0-63.465-28.655-63.465-64s28.415-64 63.465-64zM815.185 42.667c35.051 0 63.462 28.655 63.462 64s-28.412 64-63.462 64c-35.051 0-63.467-28.655-63.467-64s28.416-64 63.467-64zM927.834 697.107c-4.459 5.499-10.074 9.928-16.439 12.965-6.37 3.037-13.325 4.607-20.369 4.595h-603.615l-12.157 69.56c-1.296 7.409-5.14 14.121-10.857 18.957s-12.939 7.485-20.4 7.483h-126.93c-8.416 0-16.487-3.372-22.438-9.373s-9.294-14.141-9.294-22.627c0-8.487 3.343-16.626 9.294-22.627s14.022-9.373 22.438-9.373h100.315l90.557-517.559c1.296-7.411 5.14-14.123 10.856-18.957s12.939-7.484 20.4-7.484h507.722c8.414 0 16.486 3.371 22.438 9.374 5.952 5.999 9.293 14.14 9.293 22.626s-3.341 16.627-9.293 22.626c-5.952 6.003-14.025 9.374-22.438 9.374h-481.106l-11.186 64h479.283c11.004 0.013 21.666 3.861 30.178 10.893 8.516 7.031 14.362 16.811 16.546 27.686l57.118 288.001c1.378 6.97 1.203 14.161-0.512 21.054s-4.928 13.316-9.404 18.806z" />
<glyph unicode="&#xe904;" glyph-name="cart" d="M53.333 778.667c0 23.564 19.103 42.667 42.667 42.667h128c20.704 0 38.42-14.863 42.017-35.252l10.72-60.748h599.742c8.674 0.002 17.242-1.92 25.084-5.627 7.851-3.711 14.78-9.119 20.288-15.833 5.504-6.714 9.455-14.567 11.558-22.992s2.313-17.209 0.606-25.722l-57.6-288c-2.662-13.303-9.852-25.28-20.348-33.877s-23.65-13.291-37.218-13.282h-470.583l7.529-42.667h476.204c23.565 0 42.667-19.102 42.667-42.667s-19.102-42.667-42.667-42.667h-512c-20.704 0-38.42 14.865-42.017 35.251l-89.779 508.749h-92.204c-23.564 0-42.667 19.103-42.667 42.667zM333.208 405.334h463.822l46.933 234.667h-552.167l41.412-234.667zM362.667 106.667c0-5.892-4.776-10.667-10.667-10.667s-10.667 4.774-10.667 10.667c0 5.892 4.776 10.667 10.667 10.667s10.667-4.774 10.667-10.667zM352 181.334c-41.237 0-74.667-33.429-74.667-74.667s33.429-74.667 74.667-74.667c41.237 0 74.667 33.429 74.667 74.667s-33.429 74.667-74.667 74.667zM810.667 106.667c0-5.892-4.774-10.667-10.667-10.667s-10.667 4.774-10.667 10.667c0 5.892 4.774 10.667 10.667 10.667s10.667-4.774 10.667-10.667zM800 181.334c-41.237 0-74.667-33.429-74.667-74.667s33.429-74.667 74.667-74.667c41.237 0 74.667 33.429 74.667 74.667s-33.429 74.667-74.667 74.667z" />
<glyph unicode="&#xe905;" glyph-name="check-rounder" d="M984.772 782.668c37.775-37.1 38.322-97.799 1.221-135.573l-564.938-575.21c-18.025-18.354-42.672-28.692-68.397-28.692s-50.371 10.339-68.397 28.692l-256.79 261.459c-37.1 37.775-36.553 98.473 1.221 135.573s98.473 36.554 135.572-1.221l188.393-191.818 496.541 505.569c37.1 37.775 97.798 38.321 135.573 1.221z" />
<glyph unicode="&#xe906;" glyph-name="chevron-down-bold" d="M492.333 143.067l-380.363 456.436c-44.464 53.357-6.523 134.364 62.932 134.364h674.195c69.455 0 107.396-81.007 62.932-134.364l-380.363-456.436c-10.235-12.282-29.099-12.282-39.334 0z" />
<glyph unicode="&#xe907;" glyph-name="chevron-down" d="M512.004 130.129c-11.377 0-22.385 2.133-33.024 6.4-10.695 4.267-19.599 9.956-26.709 17.067l-392.534 392.533c-15.644 15.644-23.467 35.556-23.467 59.733s7.822 44.089 23.467 59.734c15.645 15.644 35.556 23.467 59.734 23.467s44.089-7.822 59.733-23.467l332.8-332.8 332.8 332.8c15.646 15.644 35.554 23.467 59.729 23.467 24.183 0 44.092-7.822 59.733-23.467 15.65-15.645 23.467-35.555 23.467-59.734s-7.817-44.089-23.467-59.733l-392.529-392.533c-8.533-8.533-17.777-14.564-27.733-18.091-9.956-3.584-20.623-5.376-32-5.376z" />
<glyph unicode="&#xe908;" glyph-name="chevron-left" d="M783.149 917.244c28.564-28.564 28.564-74.875 0-103.44l-387.138-387.137 387.138-387.138c28.564-28.562 28.564-74.876 0-103.439s-74.876-28.562-103.44 0l-438.857 438.856c-28.564 28.564-28.564 74.876 0 103.44l438.857 438.857c28.564 28.564 74.876 28.564 103.44 0z" />
<glyph unicode="&#xe909;" glyph-name="chevron-right" d="M240.852 917.244c-28.564-28.564-28.564-74.875 0-103.44l387.138-387.137-387.138-387.138c-28.564-28.562-28.564-74.876 0-103.439s74.875-28.562 103.44 0l438.857 438.856c28.564 28.564 28.564 74.876 0 103.44l-438.857 438.857c-28.564 28.564-74.876 28.564-103.44 0z" />
<glyph unicode="&#xe90a;" glyph-name="chevron-up-bold" d="M531.667 710.267l380.363-456.436c44.464-53.357 6.523-134.364-62.932-134.364h-674.195c-69.455 0-107.396 81.007-62.932 134.364l380.363 456.436c10.235 12.282 29.099 12.282 39.334 0z" />
<glyph unicode="&#xe90b;" glyph-name="chevron-up" d="M512.004 689.059c-11.377 0-22.385-2.133-33.024-6.4-10.695-4.267-19.599-9.956-26.709-17.067l-392.534-392.534c-15.644-15.644-23.467-35.555-23.467-59.733s7.822-44.088 23.467-59.733c15.645-15.644 35.556-23.467 59.734-23.467s44.089 7.823 59.733 23.467l332.8 332.8 332.8-332.8c15.646-15.644 35.554-23.467 59.729-23.467 24.183 0 44.092 7.823 59.733 23.467 15.65 15.645 23.467 35.556 23.467 59.733s-7.817 44.089-23.467 59.733l-392.529 392.534c-8.533 8.533-17.777 14.564-27.733 18.091-9.956 3.584-20.623 5.376-32 5.376z" />
<glyph unicode="&#xe90c;" glyph-name="copy" d="M256 736h341.333c14.144 0 27.712-5.619 37.713-15.621s15.62-23.567 15.62-37.712v-53.333h-224c-31.119 0-60.963-12.362-82.967-34.366s-34.366-51.848-34.366-82.967v-224h-53.333c-14.145 0-27.71 5.619-37.712 15.62s-15.621 23.569-15.621 37.713v341.333c0 14.145 5.619 27.71 15.621 37.712s23.567 15.621 37.712 15.621zM714.667 629.334h53.333c31.117 0 60.962-12.362 82.965-34.366 22.007-22.004 34.368-51.848 34.368-82.967v-341.333c0-31.117-12.361-60.962-34.368-82.965-22.003-22.007-51.849-34.368-82.965-34.368h-341.333c-31.119 0-60.963 12.361-82.967 34.368-22.004 22.003-34.366 51.849-34.366 82.965v53.333h-53.333c-31.119 0-60.963 12.361-82.967 34.368-22.004 22.003-34.366 51.849-34.366 82.965v341.333c0 31.119 12.362 60.963 34.366 82.967s51.848 34.366 82.967 34.366h341.333c31.117 0 60.962-12.362 82.965-34.366 22.007-22.004 34.368-51.848 34.368-82.967v-53.333zM426.667 565.334c-14.145 0-27.71-5.619-37.712-15.621s-15.621-23.567-15.621-37.712v-341.333c0-14.144 5.619-27.712 15.621-37.713s23.567-15.62 37.712-15.62h341.333c14.144 0 27.712 5.619 37.713 15.62s15.62 23.569 15.62 37.713v341.333c0 14.145-5.619 27.71-15.62 37.712s-23.569 15.621-37.713 15.621h-341.333z" />
<glyph unicode="&#xe90d;" glyph-name="crop" d="M725.333 298.667v341.333h-341.333v85.333h341.333c23.467 0 43.563-8.363 60.288-25.088 16.695-16.697 25.045-36.779 25.045-60.245v-341.333h-85.333zM768-42.666c-12.087 0-22.217 4.096-30.379 12.288-8.192 8.162-12.288 18.291-12.288 30.379v128h-426.667c-23.467 0-43.549 8.35-60.245 25.045-16.725 16.725-25.088 36.821-25.088 60.288v426.667h-128c-12.089 0-22.215 4.082-30.379 12.245-8.192 8.192-12.288 18.333-12.288 30.421s4.096 22.229 12.288 30.421c8.163 8.163 18.29 12.245 30.379 12.245h128v128c0 12.089 4.082 22.229 12.245 30.421 8.192 8.163 18.333 12.245 30.421 12.245s22.229-4.082 30.421-12.245c8.163-8.192 12.245-18.333 12.245-30.421v-640h640c12.087 0 22.217-4.096 30.379-12.288 8.192-8.162 12.288-18.291 12.288-30.379s-4.096-22.217-12.288-30.379c-8.162-8.192-18.291-12.288-30.379-12.288h-128v-128c0-12.087-4.096-22.217-12.288-30.379-8.162-8.192-18.291-12.288-30.379-12.288z" />
<glyph unicode="&#xe90e;" glyph-name="dots-ver" d="M512 938.667c61.856 0 112-50.94 112-113.778v-0.994c0-62.838-50.144-113.778-112-113.778s-112 50.94-112 113.778v0.994c0 62.838 50.144 113.778 112 113.778zM512 540.942c61.856 0 112-50.94 112-113.778v-0.995c0-62.838-50.144-113.778-112-113.778s-112 50.94-112 113.778v0.995c0 62.838 50.144 113.778 112 113.778zM512 143.217c61.856 0 112-50.938 112-113.779v-0.992c0-62.842-50.144-113.779-112-113.779s-112 50.938-112 113.779v0.992c0 62.842 50.144 113.779 112 113.779z" />
<glyph unicode="&#xe90f;" glyph-name="download" d="M512 274.134c-5.687 0-11.021 0.896-16 2.688-4.979 1.762-9.6 4.779-13.867 9.045l-153.6 153.6c-7.822 7.821-11.733 17.779-11.733 29.867s3.911 22.046 11.733 29.867c7.822 7.821 17.949 11.917 30.379 12.288 12.459 0.341 22.599-3.401 30.421-11.221l80-80v305.067c0 12.089 4.096 22.229 12.288 30.421 8.162 8.163 18.291 12.245 30.379 12.245s22.229-4.082 30.421-12.245c8.162-8.192 12.245-18.333 12.245-30.421v-305.067l80 80c7.821 7.821 17.963 11.563 30.421 11.221 12.429-0.371 22.558-4.467 30.379-12.288s11.733-17.779 11.733-29.867c0-12.087-3.913-22.046-11.733-29.867l-153.6-153.6c-4.267-4.267-8.887-7.283-13.867-9.045-4.979-1.792-10.313-2.688-16-2.688zM256 85.334c-23.467 0-43.549 8.35-60.245 25.045-16.725 16.725-25.088 36.821-25.088 60.288v85.333c0 12.087 4.082 22.229 12.245 30.421 8.192 8.162 18.333 12.245 30.421 12.245s22.229-4.083 30.421-12.245c8.163-8.192 12.245-18.334 12.245-30.421v-85.333h512v85.333c0 12.087 4.096 22.229 12.288 30.421 8.162 8.162 18.291 12.245 30.379 12.245s22.217-4.083 30.379-12.245c8.192-8.192 12.288-18.334 12.288-30.421v-85.333c0-23.467-8.35-43.563-25.045-60.288-16.725-16.695-36.821-25.045-60.288-25.045h-512z" />
<glyph unicode="&#xe910;" glyph-name="drag" d="M389.12 795.307h81.92v-81.92h-81.92v81.92zM552.96 795.307h81.92v-81.92h-81.92v81.92zM389.12 631.467h81.92v-81.92h-81.92v81.92zM552.96 631.467h81.92v-81.92h-81.92v81.92zM389.12 467.627h81.92v-81.92h-81.92v81.92zM552.96 467.627h81.92v-81.92h-81.92v81.92zM389.12 303.787h81.92v-81.92h-81.92v81.92zM552.96 303.787h81.92v-81.92h-81.92v81.92zM389.12 139.947h81.92v-81.92h-81.92v81.92zM552.96 139.947h81.92v-81.92h-81.92v81.92z" />
<glyph unicode="&#xe911;" glyph-name="edit" d="M714.97 723.644l-55.424-55.422 94.007-94.009 55.424 55.422-94.007 94.009zM693.214 513.873l-94.007 94.009-343.206-343.208v-94.007h94.009l343.205 343.206zM657.523 786.877c15.236 15.233 35.9 23.79 57.446 23.79 21.542 0 42.206-8.557 57.446-23.79l99.789-99.791c15.232-15.237 23.795-35.905 23.795-57.451s-8.559-42.209-23.791-57.447l-463.046-463.046c-0.001 0 0.002 0 0 0-15.234-15.236-35.901-23.804-57.446-23.808h-99.796c-21.55 0-42.217 8.559-57.455 23.799-15.238 15.236-23.799 35.904-23.799 57.455v99.785c0.005 21.547 8.567 42.219 23.803 57.451 0.001 0.004-0.002 0 0 0l463.054 463.054z" />
<glyph unicode="&#xe912;" glyph-name="file" d="M854.801 609.466l-224 224c-6.097 5.943-14.289 9.248-22.801 9.2h-384c-16.974 0-33.253-6.743-45.255-18.745s-18.745-28.281-18.745-45.255v-704c0-16.973 6.743-33.254 18.745-45.257s28.281-18.743 45.255-18.743h576c16.973 0 33.254 6.741 45.257 18.743s18.743 28.284 18.743 45.257v512c0.047 8.513-3.255 16.704-9.199 22.8zM640 733.466l114.799-114.8h-114.799v114.8zM800 74.667h-576v704h352v-192c0-8.487 3.371-16.626 9.374-22.627 5.999-6.001 14.14-9.373 22.626-9.373h192v-480z" />
<glyph unicode="&#xe913;" glyph-name="folder-bold" d="M170.667 85.334c-23.467 0-43.549 8.35-60.245 25.045-16.725 16.725-25.088 36.821-25.088 60.288v512c0 23.467 8.363 43.549 25.088 60.245 16.697 16.725 36.779 25.088 60.245 25.088h256l85.333-85.333h341.333c23.467 0 43.563-8.363 60.288-25.088 16.695-16.697 25.045-36.779 25.045-60.245v-426.667c0-23.467-8.35-43.563-25.045-60.288-16.725-16.695-36.821-25.045-60.288-25.045h-682.667z" />
<glyph unicode="&#xe914;" glyph-name="folder" d="M170.667 85.334c-23.467 0-43.549 8.35-60.245 25.045-16.725 16.725-25.088 36.821-25.088 60.288v512c0 23.467 8.363 43.549 25.088 60.245 16.697 16.725 36.779 25.088 60.245 25.088h256l85.333-85.333h341.333c23.467 0 43.563-8.363 60.288-25.088 16.695-16.697 25.045-36.779 25.045-60.245v-426.667c0-23.467-8.35-43.563-25.045-60.288-16.725-16.695-36.821-25.045-60.288-25.045h-682.667zM170.667 682.667v-512h682.667v426.667h-376.533l-85.333 85.333h-220.8z" />
<glyph unicode="&#xe915;" glyph-name="gallery" d="M143.36 139.947c-22.528 0-41.807 8.016-57.836 24.044-16.056 16.056-24.084 35.348-24.084 57.876v409.6c0 22.528 8.028 41.807 24.084 57.836 16.029 16.056 35.308 24.084 57.836 24.084h409.6c22.528 0 41.82-8.028 57.876-24.084 16.028-16.029 24.044-35.308 24.044-57.836v-409.6c0-22.528-8.016-41.82-24.044-57.876-16.056-16.028-35.348-24.044-57.876-24.044h-409.6zM757.76 467.627c-11.604 0-21.328 3.932-29.164 11.796-7.864 7.836-11.796 17.56-11.796 29.164v163.84c0 11.605 3.932 21.34 11.796 29.204 7.836 7.837 17.56 11.756 29.164 11.756h163.84c11.604 0 21.328-3.919 29.164-11.756 7.864-7.864 11.796-17.599 11.796-29.204v-163.84c0-11.604-3.932-21.328-11.796-29.164-7.836-7.864-17.56-11.796-29.164-11.796h-163.84zM798.72 549.547h81.92v81.92h-81.92v-81.92zM143.36 221.867h409.6v409.6h-409.6v-409.6zM184.32 303.787h327.68l-107.52 143.36-76.8-102.4-56.32 74.752-87.040-115.712zM757.76 139.947c-11.604 0-21.328 3.932-29.164 11.796-7.864 7.836-11.796 17.56-11.796 29.164v163.84c0 11.604 3.932 21.34 11.796 29.204 7.836 7.836 17.56 11.756 29.164 11.756h163.84c11.604 0 21.328-3.92 29.164-11.756 7.864-7.864 11.796-17.601 11.796-29.204v-163.84c0-11.604-3.932-21.328-11.796-29.164-7.836-7.864-17.56-11.796-29.164-11.796h-163.84zM798.72 221.867h81.92v81.92h-81.92v-81.92z" />
<glyph unicode="&#xe916;" glyph-name="help" d="M509.867 170.667c14.933 0 27.563 5.163 37.888 15.488 10.295 10.295 15.445 22.912 15.445 37.845s-5.15 27.55-15.445 37.845c-10.325 10.325-22.955 15.488-37.888 15.488s-27.563-5.163-37.888-15.488c-10.295-10.295-15.445-22.912-15.445-37.845s5.15-27.55 15.445-37.845c10.325-10.325 22.955-15.488 37.888-15.488zM471.467 334.934h78.933c0 23.467 2.675 41.954 8.021 55.467 5.321 13.513 20.425 32 45.312 55.467 18.487 18.487 33.067 36.096 43.733 52.821 10.667 16.697 16 36.779 16 60.245 0 39.822-14.579 70.4-43.733 91.733s-63.646 32-103.467 32c-40.533 0-73.417-10.667-98.645-32-25.259-21.333-42.866-46.933-52.821-76.8l70.4-27.733c3.554 12.8 11.563 26.667 24.021 41.6 12.429 14.933 31.445 22.4 57.045 22.4 22.754 0 39.821-6.215 51.2-18.645 11.379-12.459 17.067-26.155 17.067-41.088 0-14.222-4.267-27.549-12.8-39.979-8.533-12.459-19.2-24.021-32-34.688-31.287-27.733-50.487-48.713-57.6-62.933s-10.667-40.179-10.667-77.867zM512-0c-59.021 0-114.489 11.209-166.4 33.621-51.911 22.387-97.067 52.779-135.467 91.179s-68.793 83.554-91.179 135.467c-22.414 51.913-33.621 107.379-33.621 166.4s11.207 114.489 33.621 166.4c22.386 51.911 52.779 97.067 91.179 135.467s83.555 68.807 135.467 91.221c51.911 22.386 107.379 33.579 166.4 33.579s114.487-11.193 166.4-33.579c51.913-22.414 97.067-52.821 135.467-91.221s68.791-83.555 91.179-135.467c22.413-51.911 33.621-107.379 33.621-166.4s-11.209-114.487-33.621-166.4c-22.387-51.913-52.779-97.067-91.179-135.467s-83.554-68.791-135.467-91.179c-51.913-22.413-107.379-33.621-166.4-33.621zM512 85.334c95.287 0 176 33.067 242.133 99.2s99.2 146.846 99.2 242.133c0 95.289-33.067 176-99.2 242.133s-146.846 99.2-242.133 99.2c-95.289 0-176-33.067-242.133-99.2s-99.2-146.845-99.2-242.133c0-95.287 33.067-176 99.2-242.133s146.845-99.2 242.133-99.2z" />
<glyph unicode="&#xe917;" glyph-name="key" d="M541.052 836.258c38.259 19.253 80.496 29.276 123.329 29.266 39.424 0.009 78.39-8.482 114.239-24.893s67.735-40.359 93.491-70.209c25.756-29.851 44.773-64.903 55.759-102.768s13.678-77.654 7.89-116.654c-5.783-38.999-19.905-76.294-41.409-109.343-21.499-33.046-49.874-61.069-83.183-82.159s-70.778-34.753-109.846-40.053c-39.068-5.3-78.819-2.116-116.546 9.333l-316.587-316.587h-182.857v182.857l316.587 316.587c-12.443 40.984-15.113 84.313-7.795 126.515s24.419 82.102 49.933 116.505c25.515 34.402 58.733 62.35 96.994 81.604zM602.453 387.111c20.080-6.095 40.945-9.196 61.928-9.206 44.876-0.005 88.605 14.141 124.977 40.428 36.367 26.283 63.522 63.366 77.605 105.974 14.078 42.608 14.36 88.57 0.809 131.348-13.546 42.779-40.243 80.196-76.283 106.929s-79.594 41.419-124.465 41.971c-44.871 0.552-88.771-13.059-125.46-38.897s-64.296-62.586-78.895-105.019c-14.598-42.433-15.444-88.388-2.418-131.329l10.606-34.956-25.844-25.814-298.728-298.728v-96.67h96.67l67.261 67.262-42.026 42.028 43.093 43.091 42.027-42.028 48.335 48.338-42.026 42.028 43.093 43.091 42.027-41.999 122.757 122.758 34.957-10.601zM755.81 621.715c0-33.663-27.287-60.952-60.952-60.952s-60.952 27.289-60.952 60.952c0 33.663 27.287 60.952 60.952 60.952s60.952-27.289 60.952-60.952z" />
<glyph unicode="&#xe918;" glyph-name="list" d="M204.8 365.227c-17.067 0-31.567 5.98-43.5 17.94-11.96 11.932-17.94 26.431-17.94 43.5s5.98 31.568 17.94 43.5c11.933 11.96 26.433 17.94 43.5 17.94s31.567-5.98 43.5-17.94c11.96-11.932 17.94-26.431 17.94-43.5s-5.98-31.568-17.94-43.5c-11.933-11.96-26.433-17.94-43.5-17.94zM204.8 610.987c-17.067 0-31.567 5.98-43.5 17.94-11.96 11.933-17.94 26.433-17.94 43.5s5.98 31.567 17.94 43.5c11.933 11.96 26.433 17.94 43.5 17.94s31.567-5.98 43.5-17.94c11.96-11.933 17.94-26.433 17.94-43.5s-5.98-31.567-17.94-43.5c-11.933-11.96-26.433-17.94-43.5-17.94zM204.8 119.467c-17.067 0-31.567 5.98-43.5 17.94-11.96 11.932-17.94 26.431-17.94 43.5s5.98 31.568 17.94 43.5c11.933 11.96 26.433 17.94 43.5 17.94s31.567-5.98 43.5-17.94c11.96-11.932 17.94-26.431 17.94-43.5s-5.98-31.568-17.94-43.5c-11.933-11.96-26.433-17.94-43.5-17.94zM389.12 139.947c-11.605 0-21.327 3.932-29.164 11.796-7.864 7.836-11.796 17.56-11.796 29.164s3.932 21.328 11.796 29.164c7.837 7.864 17.558 11.796 29.164 11.796h450.56c11.604 0 21.328-3.932 29.164-11.796 7.864-7.836 11.796-17.56 11.796-29.164s-3.932-21.328-11.796-29.164c-7.836-7.864-17.56-11.796-29.164-11.796h-450.56zM389.12 385.707c-11.605 0-21.327 3.932-29.164 11.796-7.864 7.836-11.796 17.56-11.796 29.164s3.932 21.34 11.796 29.204c7.837 7.836 17.558 11.756 29.164 11.756h450.56c11.604 0 21.328-3.92 29.164-11.756 7.864-7.864 11.796-17.601 11.796-29.204s-3.932-21.328-11.796-29.164c-7.836-7.864-17.56-11.796-29.164-11.796h-450.56zM389.12 631.467c-11.605 0-21.327 3.919-29.164 11.756-7.864 7.864-11.796 17.599-11.796 29.204s3.932 21.34 11.796 29.204c7.837 7.837 17.558 11.756 29.164 11.756h450.56c11.604 0 21.328-3.919 29.164-11.756 7.864-7.864 11.796-17.599 11.796-29.204s-3.932-21.34-11.796-29.204c-7.836-7.837-17.56-11.756-29.164-11.756h-450.56z" />
<glyph unicode="&#xe919;" glyph-name="logout" d="M573.44-13.653h-368.64c-16.29 0.016-31.908 6.496-43.427 18.014s-17.997 27.136-18.013 43.426v737.28c0.016 16.29 6.495 31.908 18.013 43.427s27.137 17.997 43.427 18.013h368.64c16.29-0.016 31.908-6.495 43.426-18.013s17.998-27.137 18.014-43.427v-61.44c0-16.966-13.754-30.72-30.72-30.72s-30.72 13.754-30.72 30.72v61.44h-368.64v-737.28h368.64v61.44c0 16.966 13.754 30.72 30.72 30.72s30.72-13.754 30.72-30.72v-61.44c-0.016-16.29-6.496-31.908-18.014-43.426s-27.136-17.998-43.426-18.014zM674.603 297.262c-11.997-11.993-11.997-31.441-0.004-43.434 11.997-11.997 31.445-11.997 43.442 0l140.878 140.878c11.997 11.997 11.997 31.445 0 43.442l-140.878 140.88c-11.997 11.995-31.445 11.995-43.442 0-11.993-11.995-11.993-31.443 0.004-43.438l88.441-88.443h-404.644c-16.966 0-30.72-13.754-30.72-30.72s13.754-30.72 30.72-30.72h404.644l-88.441-88.445z" />
<glyph unicode="&#xe91a;" glyph-name="management" d="M137.373 500.105c6.001-6.003 14.141-9.374 22.627-9.374h256c8.487 0 16.627 3.371 22.626 9.374 6.003 5.999 9.374 14.139 9.374 22.626v255.936c0 8.487-3.371 16.626-9.374 22.627-5.999 6.001-14.139 9.373-22.626 9.373h-256c-8.487 0-16.626-3.372-22.627-9.373s-9.373-14.141-9.373-22.627v-255.936c0-8.487 3.372-16.627 9.373-22.626zM585.374 500.105c5.999-6.003 14.14-9.374 22.626-9.374h255.936c8.486 0 16.627 3.371 22.626 9.374 6.003 5.999 9.374 14.139 9.374 22.626v255.936c0 8.487-3.371 16.626-9.374 22.627-5.999 6.001-14.14 9.373-22.626 9.373h-255.936c-8.486 0-16.627-3.372-22.626-9.373-6.003-6.001-9.374-14.141-9.374-22.627v-255.936c0-8.487 3.371-16.627 9.374-22.626zM137.373 52.105c6.001-6.003 14.141-9.374 22.627-9.374h256c8.487 0 16.627 3.371 22.626 9.374 6.003 5.999 9.374 14.14 9.374 22.626v256c0 8.486-3.371 16.627-9.374 22.626-5.999 6.003-14.139 9.374-22.626 9.374h-256c-8.487 0-16.626-3.371-22.627-9.374-6.001-5.999-9.373-14.14-9.373-22.626v-256c0-8.486 3.372-16.627 9.373-22.626zM585.374 52.105c5.999-6.003 14.14-9.374 22.626-9.374h255.936c8.486 0 16.627 3.371 22.626 9.374 6.003 5.999 9.374 14.14 9.374 22.626v256c0 8.486-3.371 16.627-9.374 22.626-5.999 6.003-14.14 9.374-22.626 9.374h-255.936c-8.486 0-16.627-3.371-22.626-9.374-6.003-5.999-9.374-14.14-9.374-22.626v-256c0-8.486 3.371-16.627 9.374-22.626z" />
<glyph unicode="&#xe91b;" glyph-name="plus" d="M475.43 736.984c0 20.198 16.371 36.571 36.57 36.571s36.57-16.374 36.57-36.571v-273.747h273.749c20.198 0 36.57-16.375 36.57-36.574 0-20.194-16.371-36.57-36.57-36.57h-273.749v-273.749c0-20.194-16.371-36.57-36.57-36.57s-36.57 16.375-36.57 36.57v273.749h-273.749c-20.198 0-36.571 16.375-36.571 36.57 0 20.198 16.373 36.574 36.571 36.574h273.749v273.747z" />
<glyph unicode="&#xe91c;" glyph-name="return" d="M309.728 795.767c15.335-17.891 13.263-44.826-4.628-60.162l-114.351-98.015 116.753-116.753c16.662-16.661 16.662-43.677 0-60.339s-43.677-16.661-60.34 0l-149.333 149.332c-8.404 8.404-12.921 19.932-12.465 31.808s5.844 23.023 14.868 30.758l149.333 128c17.891 15.335 44.827 13.263 60.162-4.628zM85.333 640c0 23.564 19.103 42.667 42.667 42.667h490.539c169.754 0 313.271-137.996 319.881-307.674v0.004c0 0 0 0 0-0.004 7.006-179.349-140.57-332.326-319.881-332.326h-362.581c-23.564 0-42.667 19.102-42.667 42.667s19.103 42.667 42.667 42.667h362.581c131.004 0 239.727 112.836 234.615 243.669v0.004c-4.826 123.87-110.694 225.66-234.615 225.66h-490.539c-23.564 0-42.667 19.103-42.667 42.667z" />
<glyph unicode="&#xe91d;" glyph-name="search" d="M469.333 725.334c-141.385 0-256-114.615-256-256s114.615-256 256-256c141.385 0 256 114.615 256 256s-114.615 256-256 256zM128 469.334c0 188.513 152.82 341.333 341.333 341.333s341.333-152.82 341.333-341.333c0-188.514-152.819-341.333-341.333-341.333s-341.333 152.819-341.333 341.333zM695.164 243.503c16.661 16.661 43.678 16.661 60.339 0l128-128c16.661-16.661 16.661-43.678 0-60.339s-43.678-16.661-60.339 0l-128 128c-16.661 16.661-16.661 43.678 0 60.339z" />
<glyph unicode="&#xe91e;" glyph-name="setting" d="M849.062 398.507l57.6-61.44c6.016-6.711 9.754-15.159 10.675-24.128 0.917-8.969-1.024-17.997-5.555-25.792l-85.333-147.627c-4.484-7.787-11.311-13.956-19.511-17.634-8.196-3.678-17.344-4.676-26.142-2.846l-80.213 16.213c-10.206 2.108-20.834 0.41-29.871-4.779-9.041-5.188-15.868-13.504-19.196-23.381l-26.027-78.080c-2.863-8.474-8.316-15.838-15.59-21.043-7.27-5.205-16-7.996-24.943-7.97h-170.667c-9.304-0.486-18.512 2.086-26.216 7.326s-13.482 12.855-16.451 21.687l-26.027 78.080c-3.328 9.877-10.156 18.193-19.195 23.381s-19.665 6.886-29.871 4.779l-80.213-16.213c-8.797-1.83-17.946-0.832-26.144 2.846s-15.025 9.847-19.509 17.634l-85.333 147.627c-4.644 7.706-6.732 16.687-5.966 25.651s4.348 17.459 10.232 24.269l54.187 61.44c6.84 7.787 10.612 17.796 10.612 28.16s-3.772 20.373-10.612 28.16l-54.187 61.439c-5.885 6.808-9.466 15.302-10.232 24.268s1.322 17.944 5.966 25.652l85.333 147.627c4.297 7.244 10.641 13.054 18.233 16.698s16.094 4.96 24.433 3.782l82.347-16.213c10.206-2.109 20.832-0.409 29.871 4.779s15.867 13.505 19.195 23.381l23.893 78.080c2.969 8.831 8.746 16.448 16.451 21.687s16.912 7.812 26.216 7.326h170.667c8.943 0.023 17.673-2.766 24.943-7.972 7.275-5.206 12.727-12.567 15.59-21.041l26.027-78.080c3.328-9.876 10.155-18.193 19.196-23.381 9.037-5.188 19.665-6.888 29.871-4.779l80.213 16.213c8.798 1.828 17.946 0.832 26.142-2.845 8.201-3.677 15.027-9.849 19.511-17.635l85.333-147.627c4.531-7.794 6.473-16.824 5.555-25.792-0.922-8.969-4.659-17.415-10.675-24.128l-54.613-61.439c-6.839-7.787-10.611-17.796-10.611-28.16s3.772-20.373 10.611-28.16zM496.636 597.334c-1.024 0-2.048-0.009-3.072-0.028-0.964 0.018-1.933 0.028-2.901 0.028-29.615 0-57.216-8.62-80.431-23.489-2.849-1.673-5.655-3.431-8.413-5.274-28.066-18.753-49.94-45.408-62.858-76.594-12.917-31.185-16.297-65.498-9.712-98.607 6.585-33.105 22.84-63.514 46.708-87.381s54.278-40.124 87.383-46.707c33.109-6.588 67.422-3.209 98.607 9.711 31.185 12.915 57.839 34.79 76.595 62.857 18.752 28.066 28.762 61.065 28.762 94.818 0 45.265-17.98 88.673-49.988 120.68-32.004 32.006-75.413 49.987-120.678 49.987z" />
<glyph unicode="&#xe91f;" glyph-name="trash-bold" d="M853.333 682.667h-170.667v42.667c0 33.948-13.487 66.505-37.491 90.51s-56.563 37.49-90.509 37.49h-85.333c-33.946 0-66.505-13.486-90.51-37.49s-37.49-56.562-37.49-90.51v-42.667h-170.667c-11.316 0-22.168-4.495-30.17-12.497s-12.497-18.854-12.497-30.17c0-11.316 4.495-22.168 12.497-30.17s18.854-12.497 30.17-12.497h42.667v-469.333c0-33.946 13.486-66.505 37.49-90.509s56.562-37.491 90.51-37.491h341.333c33.946 0 66.505 13.487 90.509 37.491s37.491 56.563 37.491 90.509v469.333h42.667c11.315 0 22.17 4.495 30.17 12.497s12.497 18.854 12.497 30.17c0 11.316-4.497 22.168-12.497 30.17s-18.854 12.497-30.17 12.497zM456.836 183.164c-8-8-18.854-12.497-30.17-12.497s-22.168 4.497-30.17 12.497c-8.001 8-12.497 18.854-12.497 30.17v256c0 11.315 4.495 22.17 12.497 30.17s18.854 12.497 30.17 12.497c11.315 0 22.17-4.497 30.17-12.497s12.497-18.854 12.497-30.17v-256c0-11.315-4.497-22.17-12.497-30.17zM627.503 183.164c-8-8-18.854-12.497-30.17-12.497s-22.17 4.497-30.17 12.497c-8 8-12.497 18.854-12.497 30.17v256c0 11.315 4.497 22.17 12.497 30.17s18.854 12.497 30.17 12.497c11.315 0 22.17-4.497 30.17-12.497s12.497-18.854 12.497-30.17v-256c0-11.315-4.497-22.17-12.497-30.17z" />
<glyph unicode="&#xe920;" glyph-name="trash" d="M426.667 170.667c11.315 0 22.17 4.497 30.17 12.497s12.497 18.854 12.497 30.17v256c0 11.315-4.497 22.17-12.497 30.17s-18.854 12.497-30.17 12.497c-11.316 0-22.168-4.497-30.17-12.497s-12.497-18.854-12.497-30.17v-256c0-11.315 4.495-22.17 12.497-30.17s18.854-12.497 30.17-12.497zM853.333 682.667h-170.667v42.667c0 33.948-13.487 66.505-37.491 90.51s-56.563 37.49-90.509 37.49h-85.333c-33.946 0-66.505-13.486-90.51-37.49s-37.49-56.562-37.49-90.51v-42.667h-170.667c-11.316 0-22.168-4.495-30.17-12.497s-12.497-18.854-12.497-30.17c0-11.316 4.495-22.168 12.497-30.17s18.854-12.497 30.17-12.497h42.667v-469.333c0-33.946 13.486-66.505 37.49-90.509s56.562-37.491 90.51-37.491h341.333c33.946 0 66.505 13.487 90.509 37.491s37.491 56.563 37.491 90.509v469.333h42.667c11.315 0 22.17 4.495 30.17 12.497s12.497 18.854 12.497 30.17c0 11.316-4.497 22.168-12.497 30.17s-18.854 12.497-30.17 12.497zM426.667 725.334c0 11.316 4.497 22.168 12.497 30.17s18.854 12.497 30.17 12.497h85.333c11.315 0 22.17-4.495 30.17-12.497s12.497-18.854 12.497-30.17v-42.667h-170.667v42.667zM725.333 128c0-11.315-4.497-22.17-12.497-30.17s-18.854-12.497-30.17-12.497h-341.333c-11.316 0-22.168 4.497-30.17 12.497s-12.497 18.854-12.497 30.17v469.333h426.667v-469.333zM597.333 170.667c11.315 0 22.17 4.497 30.17 12.497s12.497 18.854 12.497 30.17v256c0 11.315-4.497 22.17-12.497 30.17s-18.854 12.497-30.17 12.497c-11.315 0-22.17-4.497-30.17-12.497s-12.497-18.854-12.497-30.17v-256c0-11.315 4.497-22.17 12.497-30.17s18.854-12.497 30.17-12.497z" />
<glyph unicode="&#xe921;" glyph-name="upload" d="M277.331 85.333c-64.854 0-120.178 22.328-165.974 66.987-45.796 44.941-68.693 99.698-68.693 164.266 0 55.467 16.64 104.96 49.92 148.48 33.564 43.52 77.37 71.254 131.413 83.2 17.92 65.422 53.477 118.33 106.667 158.72 53.475 40.675 113.92 61.014 181.333 61.014 83.342 0 153.885-29.014 211.627-87.040 58.027-57.742 87.040-128.285 87.040-211.627 49.21-5.69 89.885-27.022 122.027-64 32.426-36.41 48.64-79.075 48.64-128 0-53.475-18.632-98.845-55.894-136.107s-82.63-55.893-136.106-55.893h-234.667c-23.325 0-43.378 8.39-60.16 25.173-16.782 16.498-25.173 36.552-25.173 60.16v219.734l-68.267-66.134-59.733 59.734 170.666 170.666 170.667-170.666-59.733-59.734-68.267 66.134v-219.734h234.667c29.866 0 55.040 10.382 75.52 31.147 20.763 20.48 31.146 45.653 31.146 75.52s-10.382 55.040-31.146 75.52c-20.48 20.765-45.654 31.147-75.52 31.147h-64v85.333c0 58.88-20.765 109.227-62.294 151.040-41.528 41.528-91.875 62.293-151.040 62.293-58.88 0-109.226-20.765-151.040-62.293-41.528-41.813-62.293-92.16-62.293-151.040h-21.333c-41.245 0-76.374-14.65-105.387-43.947-29.298-29.013-43.947-64.142-43.947-105.386s14.649-76.8 43.947-106.667c29.013-28.445 64.142-42.667 105.387-42.667h106.666v-85.333z" />
<glyph unicode="&#xe922;" glyph-name="user-bold" d="M525.227 400.214c125.124 0 226.56 101.436 226.56 226.56 0 125.126-101.436 226.56-226.56 226.56-125.126 0-226.56-101.434-226.56-226.56 0-125.124 101.434-226.56 226.56-226.56zM512-0c188.514 0 341.333 42.667 341.333 149.333 0 143.556-152.819 170.667-341.333 170.667s-341.333-21.333-341.333-170.667c0-106.667 152.82-149.333 341.333-149.333z" />
<glyph unicode="&#xe923;" glyph-name="user-circle" d="M981.333 426.667c0 259.206-210.129 469.333-469.333 469.333-259.206 0-469.333-210.128-469.333-469.333 0-259.204 210.128-469.333 469.333-469.333s469.333 210.129 469.333 469.333zM1024 426.667c0-282.769-229.231-512-512-512s-512 229.231-512 512c0 282.77 229.23 512 512 512s512-229.23 512-512zM505.958 406.857h-1.024c-93.505 0.29-169.249 76.548-168.929 169.986 0 93.6 76.224 169.824 169.953 169.824 93.696 0 169.886-76.224 169.886-169.92s-76.19-169.89-169.886-169.89zM505.958 700.971c-68.514 0-124.257-55.712-124.257-124.224-0.224-68.288 55.103-123.968 123.327-124.224l0.93-22.848v22.848c68.48 0 124.19 55.744 124.19 124.224 0 68.512-55.71 124.224-124.19 124.224zM509.474 94.69c-62.69 0-253.474 0-253.474 118.306 0 105.472 144.672 117.662 253.474 117.662 62.686 0 253.406 0 253.406-118.302 0-105.472-144.64-117.666-253.406-117.666zM509.474 282.658c-136.354 0-205.474-23.424-205.474-69.662 0-46.656 69.12-70.306 205.474-70.306 136.316 0 205.406 23.424 205.406 69.666 0 46.656-69.090 70.302-205.406 70.302z" />
<glyph unicode="&#xe924;" glyph-name="users-bold" d="M751.787 626.774c0-125.124-101.436-226.56-226.56-226.56-125.126 0-226.56 101.436-226.56 226.56 0 125.126 101.434 226.56 226.56 226.56 125.124 0 226.56-101.434 226.56-226.56zM853.333 149.334c0-106.667-152.819-149.333-341.333-149.333s-341.333 42.667-341.333 149.333c0 149.333 152.82 170.667 341.333 170.667s341.333-27.11 341.333-170.667zM815.787 626.774c0-97.632-48.145-184-121.984-236.681 8.474-9.51 17.801-17.877 27.823-24.913 19.49-4.612 38.097-10.291 55.514-17.263 5.931-2.372 11.81-4.928 17.604-7.68 1.225-0.038 2.453-0.055 3.682-0.055 86.025 0 155.759 86.221 155.759 192.576 0 106.267-69.615 192.431-155.541 192.576 11.098-30.775 17.143-63.961 17.143-98.56zM247.462 350.324c-2.733-1.062-5.455-2.163-8.164-3.307-77.99 22.366-135.299 97.054-135.299 185.741 0 92.842 62.801 170.339 146.386 188.535-10.188-29.632-15.72-61.429-15.72-94.519 0-105.367 56.073-197.611 140.004-248.555-45.884-4.757-89.391-13.201-127.208-27.895zM136.102 262.37c-81.478-14.921-136.102-51.247-136.102-135.437 0-72.559 79.527-110.281 189.8-122.449-47.050 31.258-83.133 77.943-83.133 144.849 0 42.167 9.497 80.32 29.435 113.037zM1024 126.934c0-81.169-84.211-118.741-194.846-125.717 49.489 31.241 88.179 78.839 88.179 148.117 0 43.814-10.884 83.238-33.229 116.646 82.398-12.676 139.895-48.777 139.895-139.046z" />
<glyph unicode="&#xe925;" glyph-name="world" d="M85.333 437.334c0 229.746 186.254 416 416 416s416-186.254 416-416c0-229.747-186.253-416-416-416s-416 186.253-416 416zM382.235 105.993c-80.335 28.881-147.131 86.148-188.291 159.706h145.357c5.091-39.804 12.403-76.471 22.398-108.454 5.585-17.873 12.359-35.238 20.536-51.251zM403.859 265.698c4.597-33.395 10.846-63.505 18.927-89.365 21.11-67.55 49.073-90.999 78.548-90.999s57.438 23.45 78.549 90.999c8.081 25.86 14.327 55.97 18.927 89.365h-194.951zM605.38 329.698h-208.093c-2.44 33.86-3.59 69.986-3.59 107.635s1.15 73.775 3.59 107.636h208.093c2.441-33.862 3.588-69.987 3.588-107.636s-1.148-73.775-3.588-107.635zM663.364 265.698c-5.090-39.804-12.403-76.471-22.396-108.454-5.585-17.873-12.361-35.238-20.535-51.251 80.333 28.881 147.127 86.148 188.288 159.706h-145.357zM836.57 329.698h-167.027c2.368 34.611 3.426 70.763 3.426 107.635s-1.058 73.024-3.426 107.636h167.027c10.884-33.926 16.764-70.094 16.764-107.636s-5.879-73.711-16.764-107.635zM808.721 608.97c-41.161 73.555-107.955 130.822-188.288 159.703 8.175-16.011 14.95-33.376 20.535-51.249 9.993-31.985 17.306-68.651 22.396-108.454h145.357zM598.81 608.97c-4.599 33.396-10.846 63.505-18.927 89.364-21.111 67.549-49.075 90.999-78.549 90.999s-57.438-23.45-78.548-90.999c-8.081-25.859-14.33-55.968-18.927-89.364h194.951zM339.301 608.97c5.091 39.803 12.403 76.468 22.398 108.454 5.585 17.873 12.359 35.239 20.536 51.249-80.335-28.881-147.131-86.148-188.291-159.703h145.357zM166.095 544.97c-10.885-33.926-16.762-70.094-16.762-107.636s5.877-73.711 16.762-107.635h167.031c-2.368 34.611-3.43 70.763-3.43 107.635s1.061 73.024 3.43 107.636h-167.031z" />
<glyph unicode="&#xe926;" glyph-name="x" d="M21.423 813.805c-28.564 28.564-28.564 74.875 0 103.439s74.876 28.564 103.439 0l387.138-387.138 387.14 387.138c28.561 28.564 74.871 28.564 103.433 0 28.57-28.564 28.57-74.876 0-103.439l-387.133-387.138 387.133-387.14c28.57-28.561 28.57-74.871 0-103.433-28.561-28.57-74.871-28.57-103.433 0l-387.14 387.133-387.138-387.133c-28.564-28.57-74.875-28.57-103.439 0-28.564 28.561-28.564 74.871 0 103.433l387.138 387.14-387.138 387.138z" />
</font>
</defs>
</svg>
